<mxfile host="app.diagrams.net" modified="2023-10-05T14:54:12.252Z" agent="Mozilla/5.0 (Windows NT 10.0; Win64; x64) AppleWebKit/537.36 (KHTML, like Gecko) Chrome/116.0.0.0 Safari/537.36 OPR/102.0.0.0" etag="gpdhhnO-JpTkPNIye5qR" version="21.8.0" type="github">
  <diagram name="Page-1" id="eQJryWVY2TALe1gV1yyO">
    <mxGraphModel dx="2260" dy="2209" grid="1" gridSize="10" guides="1" tooltips="1" connect="1" arrows="1" fold="1" page="1" pageScale="1" pageWidth="850" pageHeight="1100" math="0" shadow="0">
      <root>
        <mxCell id="0" />
        <mxCell id="1" parent="0" />
        <mxCell id="WqG1rHplCrVIxxXKtkab-1" value="User" style="shape=umlActor;verticalLabelPosition=bottom;verticalAlign=top;html=1;outlineConnect=0;" parent="1" vertex="1">
          <mxGeometry x="785" y="-500" width="80" height="180" as="geometry" />
        </mxCell>
        <mxCell id="WqG1rHplCrVIxxXKtkab-7" value="" style="shape=flexArrow;endArrow=classic;html=1;rounded=0;" parent="1" edge="1">
          <mxGeometry width="50" height="50" relative="1" as="geometry">
            <mxPoint x="740" y="-120" as="sourcePoint" />
            <mxPoint x="470" y="110" as="targetPoint" />
            <Array as="points">
              <mxPoint x="510" y="-40" />
            </Array>
          </mxGeometry>
        </mxCell>
        <mxCell id="-Joo_TxMOP61XnY2LteA-4" value="" style="group" parent="1" vertex="1" connectable="0">
          <mxGeometry x="760" y="910" width="185" height="170" as="geometry" />
        </mxCell>
        <mxCell id="-Joo_TxMOP61XnY2LteA-1" value="" style="shape=cylinder3;whiteSpace=wrap;html=1;boundedLbl=1;backgroundOutline=1;size=15;movable=1;resizable=1;rotatable=1;deletable=1;editable=1;locked=0;connectable=1;" parent="-Joo_TxMOP61XnY2LteA-4" vertex="1">
          <mxGeometry width="185" height="170" as="geometry" />
        </mxCell>
        <mxCell id="-Joo_TxMOP61XnY2LteA-2" value="MySql DataSource" style="text;html=1;strokeColor=none;fillColor=none;align=center;verticalAlign=middle;whiteSpace=wrap;rounded=0;movable=1;resizable=1;rotatable=1;deletable=1;editable=1;locked=0;connectable=1;" parent="-Joo_TxMOP61XnY2LteA-4" vertex="1">
          <mxGeometry x="27.5" width="130" height="30" as="geometry" />
        </mxCell>
        <mxCell id="-Joo_TxMOP61XnY2LteA-3" value="Parking table" style="text;html=1;strokeColor=none;fillColor=none;align=center;verticalAlign=middle;whiteSpace=wrap;rounded=0;movable=1;resizable=1;rotatable=1;deletable=1;editable=1;locked=0;connectable=1;" parent="-Joo_TxMOP61XnY2LteA-4" vertex="1">
          <mxGeometry x="55" y="80" width="60" height="30" as="geometry" />
        </mxCell>
        <mxCell id="-Joo_TxMOP61XnY2LteA-5" value="SearchNearSpotPage View" style="swimlane;whiteSpace=wrap;html=1;" parent="1" vertex="1">
          <mxGeometry x="370" y="130" width="230" height="200" as="geometry" />
        </mxCell>
        <mxCell id="-Joo_TxMOP61XnY2LteA-7" value="Search Box" style="rounded=0;whiteSpace=wrap;html=1;" parent="-Joo_TxMOP61XnY2LteA-5" vertex="1">
          <mxGeometry x="55" y="40" width="120" height="20" as="geometry" />
        </mxCell>
        <mxCell id="-Joo_TxMOP61XnY2LteA-8" value="Google Map" style="rounded=0;whiteSpace=wrap;html=1;" parent="-Joo_TxMOP61XnY2LteA-5" vertex="1">
          <mxGeometry x="55" y="80" width="120" height="60" as="geometry" />
        </mxCell>
        <mxCell id="-Joo_TxMOP61XnY2LteA-34" value="Search address" style="rounded=0;whiteSpace=wrap;html=1;" parent="-Joo_TxMOP61XnY2LteA-5" vertex="1">
          <mxGeometry x="10" y="160" width="100" height="30" as="geometry" />
        </mxCell>
        <mxCell id="-Joo_TxMOP61XnY2LteA-35" value="Show info" style="rounded=0;whiteSpace=wrap;html=1;" parent="-Joo_TxMOP61XnY2LteA-5" vertex="1">
          <mxGeometry x="120" y="160" width="100" height="30" as="geometry" />
        </mxCell>
        <mxCell id="-Joo_TxMOP61XnY2LteA-9" value="Get&lt;br&gt;localhost:8080" style="text;html=1;strokeColor=none;fillColor=none;align=center;verticalAlign=middle;whiteSpace=wrap;rounded=0;" parent="1" vertex="1">
          <mxGeometry x="390" y="-50" width="100" height="30" as="geometry" />
        </mxCell>
        <mxCell id="-Joo_TxMOP61XnY2LteA-11" value="&lt;font style=&quot;font-size: 20px;&quot;&gt;ParkingService&lt;/font&gt;" style="ellipse;whiteSpace=wrap;html=1;" parent="1" vertex="1">
          <mxGeometry x="400" y="530" width="920" height="80" as="geometry" />
        </mxCell>
        <mxCell id="-Joo_TxMOP61XnY2LteA-13" value="&lt;font style=&quot;font-size: 20px;&quot;&gt;ParkingRepository&lt;/font&gt;" style="ellipse;whiteSpace=wrap;html=1;" parent="1" vertex="1">
          <mxGeometry x="620" y="730" width="430" height="80" as="geometry" />
        </mxCell>
        <mxCell id="-Joo_TxMOP61XnY2LteA-14" value="" style="shape=flexArrow;endArrow=classic;startArrow=classic;html=1;rounded=0;" parent="1" edge="1">
          <mxGeometry width="100" height="100" relative="1" as="geometry">
            <mxPoint x="850" y="720" as="sourcePoint" />
            <mxPoint x="850" y="620" as="targetPoint" />
          </mxGeometry>
        </mxCell>
        <mxCell id="-Joo_TxMOP61XnY2LteA-15" value="" style="shape=flexArrow;endArrow=classic;startArrow=classic;html=1;rounded=0;" parent="1" source="-Joo_TxMOP61XnY2LteA-2" edge="1">
          <mxGeometry width="100" height="100" relative="1" as="geometry">
            <mxPoint x="430" y="920" as="sourcePoint" />
            <mxPoint x="853" y="820" as="targetPoint" />
          </mxGeometry>
        </mxCell>
        <mxCell id="-Joo_TxMOP61XnY2LteA-18" value="Get data from DataSource" style="text;html=1;strokeColor=none;fillColor=none;align=center;verticalAlign=middle;whiteSpace=wrap;rounded=0;" parent="1" vertex="1">
          <mxGeometry x="710" y="850" width="140" height="30" as="geometry" />
        </mxCell>
        <mxCell id="-Joo_TxMOP61XnY2LteA-20" value="SpotLeftPage View" style="swimlane;whiteSpace=wrap;html=1;" parent="1" vertex="1">
          <mxGeometry x="1110" y="130" width="225" height="200" as="geometry" />
        </mxCell>
        <mxCell id="-Joo_TxMOP61XnY2LteA-54" value="Google Map" style="rounded=0;whiteSpace=wrap;html=1;" parent="-Joo_TxMOP61XnY2LteA-20" vertex="1">
          <mxGeometry x="10" y="30" width="200" height="80" as="geometry" />
        </mxCell>
        <mxCell id="-Joo_TxMOP61XnY2LteA-55" value="Parking spot info" style="rounded=0;whiteSpace=wrap;html=1;" parent="-Joo_TxMOP61XnY2LteA-20" vertex="1">
          <mxGeometry x="10" y="120" width="200" height="70" as="geometry" />
        </mxCell>
        <mxCell id="-Joo_TxMOP61XnY2LteA-23" value="Get&amp;nbsp;&lt;br&gt;localhost:8080/search" style="text;html=1;strokeColor=none;fillColor=none;align=center;verticalAlign=middle;whiteSpace=wrap;rounded=0;" parent="1" vertex="1">
          <mxGeometry x="347.5" width="120" height="30" as="geometry" />
        </mxCell>
        <mxCell id="-Joo_TxMOP61XnY2LteA-24" value="" style="shape=flexArrow;endArrow=classic;html=1;rounded=0;" parent="1" edge="1">
          <mxGeometry width="50" height="50" relative="1" as="geometry">
            <mxPoint x="840" y="-110" as="sourcePoint" />
            <mxPoint x="840" y="120" as="targetPoint" />
          </mxGeometry>
        </mxCell>
        <mxCell id="-Joo_TxMOP61XnY2LteA-25" value="parkingListPage View" style="swimlane;whiteSpace=wrap;html=1;" parent="1" vertex="1">
          <mxGeometry x="735" y="130" width="200" height="200" as="geometry" />
        </mxCell>
        <mxCell id="-Joo_TxMOP61XnY2LteA-47" value="Parking List" style="swimlane;fontStyle=0;childLayout=stackLayout;horizontal=1;startSize=30;horizontalStack=0;resizeParent=1;resizeParentMax=0;resizeLast=0;collapsible=1;marginBottom=0;whiteSpace=wrap;html=1;" parent="-Joo_TxMOP61XnY2LteA-25" vertex="1">
          <mxGeometry x="30" y="50" width="140" height="120" as="geometry" />
        </mxCell>
        <mxCell id="-Joo_TxMOP61XnY2LteA-48" value="종묘주차장" style="text;strokeColor=none;fillColor=none;align=left;verticalAlign=middle;spacingLeft=4;spacingRight=4;overflow=hidden;points=[[0,0.5],[1,0.5]];portConstraint=eastwest;rotatable=0;whiteSpace=wrap;html=1;" parent="-Joo_TxMOP61XnY2LteA-47" vertex="1">
          <mxGeometry y="30" width="140" height="30" as="geometry" />
        </mxCell>
        <mxCell id="-Joo_TxMOP61XnY2LteA-49" value="세종로 공영주차장" style="text;strokeColor=none;fillColor=none;align=left;verticalAlign=middle;spacingLeft=4;spacingRight=4;overflow=hidden;points=[[0,0.5],[1,0.5]];portConstraint=eastwest;rotatable=0;whiteSpace=wrap;html=1;" parent="-Joo_TxMOP61XnY2LteA-47" vertex="1">
          <mxGeometry y="60" width="140" height="30" as="geometry" />
        </mxCell>
        <mxCell id="-Joo_TxMOP61XnY2LteA-50" value="훈련원공원 공영주차장" style="text;strokeColor=none;fillColor=none;align=left;verticalAlign=middle;spacingLeft=4;spacingRight=4;overflow=hidden;points=[[0,0.5],[1,0.5]];portConstraint=eastwest;rotatable=0;whiteSpace=wrap;html=1;" parent="-Joo_TxMOP61XnY2LteA-47" vertex="1">
          <mxGeometry y="90" width="140" height="30" as="geometry" />
        </mxCell>
        <mxCell id="-Joo_TxMOP61XnY2LteA-28" value="" style="shape=flexArrow;endArrow=classic;html=1;rounded=0;" parent="1" edge="1">
          <mxGeometry width="50" height="50" relative="1" as="geometry">
            <mxPoint x="910" y="-130" as="sourcePoint" />
            <mxPoint x="1209.5" y="120" as="targetPoint" />
            <Array as="points">
              <mxPoint x="1200" y="-40" />
            </Array>
          </mxGeometry>
        </mxCell>
        <mxCell id="-Joo_TxMOP61XnY2LteA-29" value="Get&lt;br&gt;localhost:8080/pleft" style="text;html=1;strokeColor=none;fillColor=none;align=center;verticalAlign=middle;whiteSpace=wrap;rounded=0;" parent="1" vertex="1">
          <mxGeometry x="1220" y="-20" width="190" height="30" as="geometry" />
        </mxCell>
        <mxCell id="-Joo_TxMOP61XnY2LteA-30" value="Get&lt;br&gt;localhost:8080/{page}" style="text;html=1;strokeColor=none;fillColor=none;align=center;verticalAlign=middle;whiteSpace=wrap;rounded=0;" parent="1" vertex="1">
          <mxGeometry x="827.5" y="-20" width="190" height="30" as="geometry" />
        </mxCell>
        <mxCell id="-Joo_TxMOP61XnY2LteA-31" value="" style="shape=flexArrow;endArrow=classic;startArrow=classic;html=1;rounded=0;" parent="1" edge="1">
          <mxGeometry width="100" height="100" relative="1" as="geometry">
            <mxPoint x="1120" y="520" as="sourcePoint" />
            <mxPoint x="1220" y="340" as="targetPoint" />
          </mxGeometry>
        </mxCell>
        <mxCell id="-Joo_TxMOP61XnY2LteA-32" value="" style="shape=flexArrow;endArrow=classic;startArrow=classic;html=1;rounded=0;" parent="1" edge="1">
          <mxGeometry width="100" height="100" relative="1" as="geometry">
            <mxPoint x="850" y="520" as="sourcePoint" />
            <mxPoint x="850" y="340" as="targetPoint" />
          </mxGeometry>
        </mxCell>
        <mxCell id="-Joo_TxMOP61XnY2LteA-39" value="getParkingList(page)" style="text;html=1;strokeColor=none;fillColor=none;align=center;verticalAlign=middle;whiteSpace=wrap;rounded=0;" parent="1" vertex="1">
          <mxGeometry x="865" y="400" width="130" height="30" as="geometry" />
        </mxCell>
        <mxCell id="-Joo_TxMOP61XnY2LteA-41" value="select * from Parking where (condition)" style="text;html=1;strokeColor=none;fillColor=none;align=center;verticalAlign=middle;whiteSpace=wrap;rounded=0;" parent="1" vertex="1">
          <mxGeometry x="595" y="650" width="245" height="30" as="geometry" />
        </mxCell>
        <mxCell id="-Joo_TxMOP61XnY2LteA-53" value="onClick data row&lt;br&gt;Get&lt;br&gt;/pleft/{parkingCode}" style="text;html=1;strokeColor=none;fillColor=none;align=center;verticalAlign=middle;whiteSpace=wrap;rounded=0;" parent="1" vertex="1">
          <mxGeometry x="970" y="160" width="110" height="70" as="geometry" />
        </mxCell>
        <mxCell id="-Joo_TxMOP61XnY2LteA-57" value="Post&lt;br&gt;localhost:8080/list" style="text;html=1;strokeColor=none;fillColor=none;align=center;verticalAlign=middle;whiteSpace=wrap;rounded=0;" parent="1" vertex="1">
          <mxGeometry x="610" y="180" width="110" height="30" as="geometry" />
        </mxCell>
        <mxCell id="-Joo_TxMOP61XnY2LteA-61" value="" style="endArrow=classic;html=1;rounded=0;" parent="1" edge="1">
          <mxGeometry width="50" height="50" relative="1" as="geometry">
            <mxPoint x="360" y="310" as="sourcePoint" />
            <mxPoint x="360" y="180" as="targetPoint" />
            <Array as="points">
              <mxPoint x="300" y="240" />
            </Array>
          </mxGeometry>
        </mxCell>
        <mxCell id="-Joo_TxMOP61XnY2LteA-62" value="Post&lt;br&gt;localhost:8080/search&lt;br&gt;&lt;br&gt;&lt;span style=&quot;white-space: pre;&quot;&gt;&#x9;&lt;/span&gt;{&quot;address&quot;: &quot;종묘주차장&quot;}" style="text;html=1;strokeColor=none;fillColor=none;align=center;verticalAlign=middle;whiteSpace=wrap;rounded=0;" parent="1" vertex="1">
          <mxGeometry x="137.5" y="250" width="210" height="100" as="geometry" />
        </mxCell>
        <mxCell id="-Joo_TxMOP61XnY2LteA-63" value="getParkingInfo" style="text;html=1;strokeColor=none;fillColor=none;align=center;verticalAlign=middle;whiteSpace=wrap;rounded=0;" parent="1" vertex="1">
          <mxGeometry x="1193" y="400" width="165" height="30" as="geometry" />
        </mxCell>
        <mxCell id="-Joo_TxMOP61XnY2LteA-64" value="redirect:/search/{address}&lt;br&gt;=&lt;br&gt;Get /search/{address}" style="text;html=1;strokeColor=none;fillColor=none;align=center;verticalAlign=middle;whiteSpace=wrap;rounded=0;" parent="1" vertex="1">
          <mxGeometry x="180" y="160" width="150" height="60" as="geometry" />
        </mxCell>
        <mxCell id="-Joo_TxMOP61XnY2LteA-66" value="&lt;font style=&quot;font-size: 20px;&quot;&gt;Spring boot&lt;/font&gt;" style="ellipse;whiteSpace=wrap;html=1;" parent="1" vertex="1">
          <mxGeometry x="655" y="-220" width="350" height="80" as="geometry" />
        </mxCell>
        <mxCell id="-Joo_TxMOP61XnY2LteA-67" value="" style="shape=flexArrow;endArrow=classic;html=1;rounded=0;" parent="1" edge="1">
          <mxGeometry width="50" height="50" relative="1" as="geometry">
            <mxPoint x="830" y="-280" as="sourcePoint" />
            <mxPoint x="830" y="-230" as="targetPoint" />
          </mxGeometry>
        </mxCell>
        <mxCell id="-Joo_TxMOP61XnY2LteA-68" value="Connect localhost:8080" style="text;html=1;strokeColor=none;fillColor=none;align=center;verticalAlign=middle;whiteSpace=wrap;rounded=0;" parent="1" vertex="1">
          <mxGeometry x="860" y="-280" width="150" height="30" as="geometry" />
        </mxCell>
        <mxCell id="juWw50O_TgqvE2d1bAG3-1" value="" style="shape=flexArrow;endArrow=classic;html=1;rounded=0;" parent="1" edge="1">
          <mxGeometry width="50" height="50" relative="1" as="geometry">
            <mxPoint x="620" y="260" as="sourcePoint" />
            <mxPoint x="710" y="260" as="targetPoint" />
          </mxGeometry>
        </mxCell>
        <mxCell id="juWw50O_TgqvE2d1bAG3-2" value="" style="shape=flexArrow;endArrow=classic;html=1;rounded=0;" parent="1" edge="1">
          <mxGeometry width="50" height="50" relative="1" as="geometry">
            <mxPoint x="970" y="250" as="sourcePoint" />
            <mxPoint x="1090" y="250" as="targetPoint" />
          </mxGeometry>
        </mxCell>
        <mxCell id="juWw50O_TgqvE2d1bAG3-8" value="Update data every 30 minutes" style="text;html=1;strokeColor=none;fillColor=none;align=center;verticalAlign=middle;whiteSpace=wrap;rounded=0;" parent="1" vertex="1">
          <mxGeometry x="1017.5" y="950" width="162.5" height="30" as="geometry" />
        </mxCell>
        <mxCell id="-IyTkSb_41GCTK3SJtBt-1" value="서울시 공영 주차장&lt;br&gt;실시간 주차정보&lt;br&gt;OpenAPI" style="ellipse;shape=cloud;whiteSpace=wrap;html=1;" vertex="1" parent="1">
          <mxGeometry x="1250" y="920" width="330" height="150" as="geometry" />
        </mxCell>
        <mxCell id="-IyTkSb_41GCTK3SJtBt-2" value="" style="shape=flexArrow;endArrow=classic;startArrow=classic;html=1;rounded=0;" edge="1" parent="1">
          <mxGeometry width="100" height="100" relative="1" as="geometry">
            <mxPoint x="970" y="1000" as="sourcePoint" />
            <mxPoint x="1210" y="1000" as="targetPoint" />
          </mxGeometry>
        </mxCell>
      </root>
    </mxGraphModel>
  </diagram>
</mxfile>
